# xmcd CD database file
#
# Track frame offsets:
#	150
#	25585
#	59715
#	80140
#	112665
#	138935
#	175702
#	181420
#	217957
#
# Disc length: 3100 seconds
#
# Revision: 0
# Processed by: cddbd v1.5PL3 Copyright (c) Steve Scherf et al.
# Submitted via: CDex 1.51
#
DISCID=720c1a09
DTITLE=Theaktet - Yellow Glasses
DYEAR=1999
DGENRE=Jazz
TTITLE0=Yellow Glasses
TTITLE1=Yesterday's News
TTITLE2=Up And Down
TTITLE3=Bista
TTITLE4=M.S.G.
TTITLE5=Little Johnny's Lament
TTITLE6=The Hard Way - Part 1
TTITLE7=The Hard Way - Part 2
TTITLE8=Yellow Glasses - Reprise
EXTD=YEAR: 1999
EXTT0=
EXTT1=
EXTT2=
EXTT3=
EXTT4=
EXTT5=
EXTT6=
EXTT7=
EXTT8=
PLAYORDER=
